<svg version="1.2" xmlns="http://www.w3.org/2000/svg" viewBox="0 0 288 199" width="288" height="199">
	<title>37645-ai</title>
	<style>
		.s0 { fill: #3f3f3f } 
	</style>
	<g id="Layer 1">
		<g id="&lt;Group&gt;">
		</g>
		<g id="&lt;Group&gt;">
		</g>
		<g id="&lt;Group&gt;">
		</g>
		<g id="&lt;Group&gt;">
		</g>
		<g id="&lt;Group&gt;">
		</g>
		<g id="&lt;Group&gt;">
		</g>
		<path id="&lt;Compound Path&gt;" fill-rule="evenodd" class="s0" d="m287.7 124.9h-286.7c0 0 26.2-13.4 39.3-46.4 0 0 5.5 5.1 14 5.1q0.5 0 1 0c9.1-0.4 18.3-27 18.3-27 0 0 0.9 1.5 7.8 3.9q0 0 0.1 0.1l3.8 1q0.1 0 0.2 0c9.1 0 22.3-20.5 27.5-30.1 5.5-10.1 10.3-14.4 10.3-14.4 0 0 17.6 11.7 20.3 17.6 2.8 5.9 10.9 23.1 24 31.1 0 0 3.9-10.6 13.4-13.5 9.5-3 11.9-9.8 11.9-9.8 0 0 16.2 13.9 20.3 19.9 4.2 6 17.6 20.8 17.6 20.8 0 0 9.1-3.4 12.2-6.4 0 0 4.3 14.7 9.5 19.1 7 5.8 13.1 17.3 35.2 29zm-62.2-6.3h10.9c-2.4-1-4.4-2-4.4-2 0 0 3.2 0.4 6.5 0.4q1.2 0 2.3 0-1.9-1.5-2.1-2.8 0-0.3 0-0.5l-10.5-1.5 11.4-1.9c-0.3-0.6-0.7-1.5-1.4-2.7-1.1-2.1-0.8-3.3-0.1-4.2l-8.1 0.5 4.6-2h-3.4l5.7-3q0-0.2 0-0.4c-0.1-0.7-0.3-1.9-0.7-3.8-0.2-0.9-0.2-1.8-0.2-2.6l-4 1.6 4.8-6.2q-0.1 0-0.1 0c-2.4 1.5-5 3.3-6.2 4.5-0.7 0.7-1.2 2.3-1.8 3.8-1.1 3-2.4 6.8-6.1 7.1-2.4 0.2-3.7 1.5-4.3 2.3l4.5 6.1c0.2 0.4 0.3 0.9 0.2 1.3-0.1 0.5-0.4 0.9-0.8 1.1-0.5 0.2-1.1 0.6-1.4 0.9q0.1 0 0.3 0.1c2.6 1.3 4 2.6 4.4 3.9zm-48.3-56.7c-1.9 5.6-4.7 15.2-4.7 18.7 0 4.5-2.7 6.9-5.3 9.2-0.9 0.9-1.9 1.8-2.8 2.9-1 1.2-1.3 2.1-1.6 3.1-0.6 1.9-1.2 3.4-3.8 4.9 0.6 2.3-0.5 5-1.5 7.2-0.5 1.3-1.3 3.3-1.1 3.9 0.1 0.1 0.2 0.2 0.4 0.2 1.9 0.7 2.2 1.9 2.3 2.6 0 1.4-0.9 2.7-2.4 4h22.1q0.4-0.1 0.9-0.2l-10-2.4 16.1 0.1c1.3-0.6 2.5-1.3 3.5-2.2 1.5-1.4 1.9-2.1 2-2.4l-19.9 1 15.6-4.2c0.1-0.4 0.3-0.8 0.9-1.1 1.1-0.6 1.3-0.8 1.5-2.1l-9.4-4.3 7.9 0.6c-0.2-0.6-0.2-1.3 0.2-2.3 0.6-1.4 2.2-3.2 3.4-4.5l-7.5-3.7 8.5 0.9c-0.1-2.7-0.6-6.5-2-9l-10.9-1 9-2.3c-0.1-0.4-0.1-1 0-1.5 0.2-0.6 0.5-1 0.9-1.2l-6-1.5 7.5-0.6c-0.7-0.9-0.9-2.7-0.9-5.7 0-4.8 0.9-7.3 1.5-9l-10.8 4.6 10.9-9.1q-0.2-0.9-0.4-1.6c-2.2 1.7-5.1 3.3-8.7 4.4-2.2 0.7-4 2.1-5.4 3.6zm-104.2 11.1c-2.5 4.8-4.9 8.5-7.3 11.2-0.6 2.2-1.9 7.6-3.5 10.7-1 1.7-1.1 2.2-1.5 3.6-0.4 1.2-0.9 3.1-2.5 7.3-1.3 3.4-2.7 6.8-3.9 9.7 4-1.1 10.1-2.7 14.9-4.2q1.7-0.5 3-1.1h-11.1l16.3-3.6c-0.6-0.8-1.1-1.8-1.3-3-0.3-1.7 0.1-3.2 1.1-4.1 0.5-0.5 1.2-0.8 1.7-0.9l-6.6-2.5 8.6-0.3q0-0.3 0-0.5c-0.2-2.6-1.6-3.6-2.5-4.1-0.4-0.3-1.3-0.9-1.1-2.1 0.2-1.2 1.3-1.4 2.5-1.5q0.1 0 0.1 0l-4.8-1.8 5.8-0.3c-2.2-1.1-3.3-2-3.1-3.4 0.3-1.7 2.2-1.8 3.1-1.8 1.6-0.2 1.6-0.4 1.9-1.7 0.1-1 0.4-2.4 1.7-3.5l-9.1 1.1 8.4-3.8q-0.6-0.4-1.1-0.7c-0.5-0.5-2-1.1-3.3-1.6q-0.7-0.3-1.4-0.6l-4.4 4.2 0.7-3.4q-0.6 1.3-1.3 2.7zm23.1-9.5q0.5 0 1.1 0c6.1 0 9.7 1.6 10.6 4.8 1.6 5.7-6.6 15.1-8.3 17q-0.3 0.3-0.7 0.4c-0.4 0.1-10 2.5-8.4 12.3 0.6 4 1.4 6.7 1.9 8.7 1 3.5 1.7 5.8-1.9 7.8-0.8 0.4-1.6 1.1-2.6 2-0.8 0.7-1.6 1.4-2.6 2.1h6.4c5-1.1 10.8-2.7 14.3-4.5q1.1-0.6 2-1.2-1 0.2-1.9 0.4c-6.6 1.3-13.2 2.9-13.2 2.9 0 0 6.3-2.7 12.6-5.2q1.6-0.6 3.2-1.2l-3.8 0.3 8.2-3.3c0.2-0.9 0.4-2.1 0.5-3.5 0.3-2.1 0-3.6-0.1-4.8-0.2-1.1-0.4-2.3 0-3.4l-4.7-1.5 3.9-0.7-6.5-2 11.3-0.3q0-0.3 0-0.8c0-1.1 0.1-2.7 1.5-4l-11.6-1.2 14.5-2q0 0 0 0c-0.2-1.4-0.5-3.6 0.2-6.5 0.2-1.1 0.5-1.9 0.9-2.6l-10.2 1.9 11.5-5.7q-0.2-0.3-0.5-0.8c-4.5-6.7-3.1-11.4-1.1-14.2 3.7-5.3 2.7-6.9 1.4-8.6l-10.7 8.7 9-12.3c-0.2-1.8-0.4-5.7-0.4-9.7l-6.1 8.2 3-7.7q-0.3 0.7-0.7 1.4c-3.2 5.8-12.2 21.2-22 28.8zm-76.3 55.1h9.7l-3.6-1 9-0.3c3.3-1.1 7.7-2.6 10.7-4-1 0-2 0-3-0.1-4-0.1-7.9-0.6-7.9-0.6 0 0 3.9-0.7 7.6-1.7 1-0.3 2-0.6 3-0.8-1-0.4-1.8-1-2-2 0-0.4-0.1-1.7 1.7-2.3q0.6-0.2 1.1-0.4l-7.9 1 6.8-3.3c-0.9-0.7-1.6-1.5-1.7-2.6-0.1-0.7 0.1-1.7 1.4-2.6q0.7-0.5 1.2-1.1l-6.3 0.3 5.1-3c-1.3 0-2.2-1-2.2-2.4q0-0.2 0-0.5l-1.4 1.2 0.1-1.7c-6.4 12.4-14.4 21.5-21.4 27.9z"/>
	</g>
</svg>